<svg xmlns="http://www.w3.org/2000/svg" viewBox="0 0 64 64" aria-labelledby="title"
aria-describedby="desc" role="img" xmlns:xlink="http://www.w3.org/1999/xlink">
  <title>Partly Cloudy Fog</title>
  <desc>A line styled icon from Orion Icon Library.</desc>
  <path data-name="layer2"
  d="M19.7 33a10 10 0 1 1 13.5-13M24 2v6M8 24H2M8.4 8.4l4.3 4.3m26.9-4.3l-4.3 4.3M12.7 35.3l-4.3 4.3"
  fill="none" stroke="#e97d77" stroke-miterlimit="10" stroke-width="2" stroke-linejoin="miter"
  stroke-linecap="round"></path>
  <path data-name="layer2" d="M62 36a10 10 0 0 0-10-10 13 13 0 0 0-25 4.1h-1a8 8 0 0 0-7.7 6"
  fill="none" stroke="#e97d77" stroke-miterlimit="10" stroke-width="2" stroke-linejoin="miter"
  stroke-linecap="round"></path>
  <path data-name="layer1" fill="none" stroke="#e97d77" stroke-miterlimit="10"
  stroke-width="2" d="M18 42h43.9M22 50h35.9M30 58h23.9m-33.8 0H24" stroke-linejoin="miter"
  stroke-linecap="round"></path>
</svg>